<svg xmlns="http://www.w3.org/2000/svg" fill="#d4d4d8" stroke="none" height="24" viewBox="0 -960 960 960" width="24"><path d="M819.999-671.538v459.229q0 30.308-21 51.308t-51.308 21H212.309q-30.308 0-51.308-21t-21-51.308v-535.382q0-30.308 21-51.308t51.308-21h459.229l148.461 148.461ZM760-646 646-760H212.309q-5.385 0-8.847 3.462-3.462 3.462-3.462 8.847v535.382q0 5.385 3.462 8.847 3.462 3.462 8.847 3.462h535.382q5.385 0 8.847-3.462 3.462-3.462 3.462-8.847V-646ZM480-269.233q41.538 0 70.768-29.23 29.231-29.231 29.231-70.768 0-41.538-29.231-70.769-29.23-29.23-70.768-29.23T409.232-440q-29.231 29.231-29.231 70.769 0 41.537 29.231 70.768 29.23 29.23 70.768 29.23ZM255.386-564.616h328.459v-139.998H255.386v139.998ZM200-646V-200-760v114Z"/></svg>
